<svg width="48" height="48" xmlns="http://www.w3.org/2000/svg" xmlns:xlink="http://www.w3.org/1999/xlink" xml:space="preserve" overflow="hidden"><g transform="translate(-13 -228)"><g><g><g><g><path d="M22.5515 14.0482C25.1862 12.048 25.7005 8.29059 23.7003 5.65589 21.7 3.02123 17.9426 2.50692 15.3079 4.50718 12.6732 6.50742 12.1589 10.2648 14.1592 12.8995 14.4882 13.3328 14.8746 13.7193 15.3079 14.0482L15.3079 12.7722C13.3792 10.772 13.4372 7.58684 15.4374 5.6581 17.4377 3.72936 20.6228 3.78733 22.5515 5.78757 24.4308 7.73653 24.4308 10.8232 22.5515 12.7722Z" fill="#000000" fill-rule="nonzero" fill-opacity="1" transform="matrix(1.02174 0 0 1 14 229)"/><path d="M12.2389 19.7115C10.8079 20.0266 9.90327 21.4421 10.2184 22.8732 10.2191 22.8765 10.2199 22.8798 10.2206 22.8831L12.8388 34.6437C12.9737 35.2525 13.3199 35.7938 13.8158 36.1718L18.4503 39.7301 18.4503 42.7771 19.4086 42.7771 19.4086 39.4934C19.4086 39.3445 19.3394 39.2041 19.2213 39.1134L14.3975 35.4104C14.0812 35.1694 13.8605 34.8241 13.7746 34.4358L11.156 22.6732C10.9661 21.7526 11.5585 20.8524 12.479 20.6625 13.3798 20.4767 14.2653 21.0401 14.4785 21.9348L16.2725 29.9848C16.3323 30.2442 16.5912 30.406 16.8506 30.3461 17.0731 30.2947 17.2291 30.0943 17.2241 29.866L17.2241 9.32842C17.2399 8.38671 18.0161 7.6361 18.9578 7.65191 19.8773 7.66729 20.6189 8.40894 20.6344 9.32842L20.6344 20.1097C20.6314 20.3666 20.8273 20.5824 21.0833 20.6042 21.3474 20.6217 21.5756 20.4217 21.5931 20.1577 21.5938 20.1468 21.5942 20.1359 21.5941 20.125 21.5955 18.9442 22.5538 17.9881 23.7346 17.9894 24.7319 17.9905 25.5959 18.681 25.817 19.6535 25.8758 19.9115 26.1326 20.0731 26.3906 20.0144 26.4753 19.9951 26.5531 19.9532 26.6158 19.8931 27.4665 19.0746 28.8197 19.1006 29.6382 19.9513 30.0208 20.3491 30.2348 20.8793 30.2354 21.4312 30.2355 21.4928 30.232 21.5544 30.2249 21.6157 30.1911 21.8782 30.3764 22.1183 30.6389 22.1521 30.7779 22.17 30.9178 22.1261 31.0217 22.0321 31.8949 21.2387 33.2458 21.3034 34.0392 22.1765 34.3965 22.5697 34.5945 23.082 34.5944 23.6133L34.5944 31.4539C34.5944 34.6605 33.5038 36.0587 32.5416 37.2926 31.8018 38.2404 31.1041 39.1359 31.1041 40.5988L31.1041 42.7747 32.0625 42.7747 32.0625 40.6007C32.0625 39.4656 32.6073 38.7665 33.2973 37.882 34.3035 36.5935 35.5532 34.9902 35.5532 31.4539L35.5532 23.6119C35.5525 21.9026 34.1662 20.5175 32.4569 20.5183 31.999 20.5185 31.5468 20.6203 31.1329 20.8164 30.791 19.1404 29.1551 18.0587 27.479 18.4006 27.1397 18.4699 26.8144 18.5955 26.5166 18.7723 25.7663 17.2351 23.9119 16.597 22.3746 17.3473 22.0876 17.4874 21.824 17.671 21.5932 17.8916L21.5932 9.32842C21.5734 7.85742 20.365 6.68097 18.894 6.70071 17.4508 6.72007 16.2856 7.88526 16.2663 9.32842L16.2663 25.5041C16.2663 25.5068 16.2641 25.5089 16.2615 25.5089 16.2588 25.5089 16.2567 25.5068 16.2567 25.5041L15.4143 21.7259C15.0959 20.2937 13.6767 19.3909 12.2445 19.7094 12.2428 19.7098 12.2411 19.7101 12.2394 19.7105Z" fill="#000000" fill-rule="nonzero" fill-opacity="1" transform="matrix(1.02174 0 0 1 14 229)"/></g></g></g></g></g></svg>