 <svg
        version="1.0"
        xmlns="http://www.w3.org/2000/svg"
        width="150"
        height="45"
        viewBox="0 0 512.000000 512.000000"
        preserveAspectRatio="xMidYMid meet"
      >
        <g transform="translate(0.000000,512.000000) scale(0.100000,-0.100000)" fill="#FFFFFF" stroke="none">
          <path
            d="M955 3591 l-540 -347 -3 -690 -2 -689 542 -344 c298 -189 547 -344
553 -344 6 0 246 144 534 321 287 177 526 322 531 322 5 0 242 -145 527 -322
285 -177 527 -322 538 -322 11 0 257 150 548 334 l527 335 0 700 0 701 -535
347 -535 348 -530 -326 c-292 -180 -536 -325 -543 -322 -7 3 -246 149 -530
326 -285 177 -523 321 -530 320 -6 0 -255 -157 -552 -348z m1036 -83 c405
-251 467 -293 451 -303 -64 -44 -925 -575 -932 -575 -10 0 -898 556 -916 574
-9 8 106 86 445 303 251 161 462 293 470 293 7 0 224 -131 482 -292z m1599
-332 l0 -585 -27 -19 c-45 -31 -1981 -1222 -1987 -1222 -3 0 -6 265 -6 588 l0
588 998 616 c548 339 1003 617 1010 617 9 1 12 -122 12 -583z m570 294 l439
-285 1 -583 c0 -485 -2 -582 -13 -575 -8 4 -210 132 -450 282 l-437 275 0 589
c0 394 3 588 10 585 6 -2 208 -131 450 -288z m-3159 -662 l449 -282 0 -589 c0
-467 -3 -588 -12 -584 -7 2 -215 133 -463 290 l-450 285 -3 587 c-2 537 -1
587 14 581 9 -3 218 -133 465 -288z m3100 -615 c252 -159 459 -290 459 -293 0
-3 -42 -32 -93 -64 -50 -33 -257 -165 -459 -294 l-368 -234 -475 293 -476 293
33 20 c84 54 913 565 917 566 2 0 210 -129 462 -287z"
          />
        </g>
      </svg>