<?xml version="1.0" standalone="no"?>
<!DOCTYPE svg PUBLIC "-//W3C//DTD SVG 20010904//EN"
 "http://www.w3.org/TR/2001/REC-SVG-20010904/DTD/svg10.dtd">
<svg version="1.0" xmlns="http://www.w3.org/2000/svg"
 width="600.000000pt" height="614.000000pt" viewBox="0 0 600.000000 614.000000"
 preserveAspectRatio="xMidYMid meet">

<g transform="translate(0.000000,614.000000) scale(0.100000,-0.100000)"
fill="#000000" stroke="none">
<path d="M0 5505 l0 -635 635 0 635 0 0 635 0 635 -635 0 -635 0 0 -635z
m1090 0 l0 -455 -455 0 -455 0 0 455 0 455 455 0 455 0 0 -455z"/>
<path d="M367 5773 c-4 -3 -7 -127 -7 -275 l0 -268 275 0 275 0 0 275 0 275
-268 0 c-148 0 -272 -3 -275 -7z"/>
<path d="M2000 6050 l0 -90 90 0 90 0 0 -275 0 -275 90 0 90 0 0 275 0 276 93
-3 92 -3 3 -87 3 -88 359 0 360 0 0 90 0 90 90 0 90 0 0 90 0 90 -180 0 -180
0 0 -90 0 -90 -180 0 -180 0 0 90 0 90 -185 0 -185 0 0 -90 0 -90 -90 0 -90 0
0 90 0 90 -90 0 -90 0 0 -90z"/>
<path d="M4000 6050 l0 -90 -180 0 -180 0 0 -90 0 -89 -92 -3 -93 -3 -3 -92
-3 -93 -179 0 -180 0 0 -180 0 -180 180 0 180 0 0 -90 0 -90 -90 0 -90 0 0
-90 0 -90 -90 0 -90 0 0 90 0 90 -90 0 -90 0 0 -180 0 -180 -90 0 -90 0 0 270
0 270 90 0 90 0 0 90 0 90 -90 0 -90 0 0 -90 0 -90 -185 0 -185 0 0 -90 0 -90
-90 0 -90 0 0 90 0 90 -90 0 -90 0 0 90 0 90 -180 0 -180 0 0 90 0 90 180 0
180 0 0 95 0 95 -90 0 -90 0 0 90 0 90 -90 0 -90 0 0 -90 0 -89 -93 -3 -92 -3
0 -180 0 -180 93 -3 92 -3 0 -179 0 -179 -92 -3 -93 -3 -3 -87 -3 -88 96 0 95
0 0 90 0 90 90 0 90 0 0 -180 0 -180 90 0 90 0 0 180 0 180 90 0 90 0 0 -90 0
-90 90 0 90 0 0 -90 0 -89 -87 -3 -88 -3 -3 -182 -2 -183 185 0 185 0 0 -90 0
-90 -95 0 -95 0 0 -90 0 -89 93 -3 92 -3 3 -87 3 -87 -93 -3 -93 -3 -3 -273
-2 -273 92 3 93 3 3 88 3 87 89 0 90 0 0 -180 0 -180 90 0 90 0 0 -90 0 -90
90 0 90 0 0 -90 0 -90 90 0 90 0 0 90 0 90 -90 0 -90 0 0 90 0 90 90 0 90 0 0
90 0 90 90 0 90 0 0 -90 0 -90 95 0 95 0 0 90 0 90 90 0 90 0 0 180 0 180 90
0 90 0 0 185 0 185 90 0 90 0 2 -182 3 -183 88 -3 87 -3 0 -179 0 -180 -90 0
-90 0 0 -90 0 -90 -90 0 -90 0 0 -180 0 -180 90 0 90 0 0 -95 0 -95 183 2 182
3 3 93 3 92 177 -2 177 -3 3 -273 2 -272 -90 0 -90 0 0 -90 0 -90 90 0 90 0 0
-90 0 -90 -275 0 -275 0 0 270 0 270 -90 0 -90 0 0 -365 0 -365 -90 0 -90 0 0
-90 0 -90 -90 0 -90 0 0 185 0 185 -90 0 -90 0 0 90 0 90 -95 0 -95 0 0 90 0
90 185 0 185 0 0 -90 0 -90 90 0 90 0 0 90 0 90 -90 0 -90 0 0 90 0 90 -90 0
-90 0 0 90 0 90 90 0 90 0 0 185 0 185 -182 -2 -183 -3 -3 -87 -3 -87 93 -3
93 -3 3 -92 3 -93 -96 0 -95 0 0 -180 0 -180 -90 0 -90 0 0 90 0 90 -90 0 -90
0 0 90 0 90 -90 0 -89 0 -3 93 -3 92 -87 3 -88 3 0 -96 0 -95 90 0 90 0 0
-180 0 -180 90 0 90 0 0 -90 0 -90 90 0 90 0 0 -90 0 -90 -90 0 -90 0 0 -185
0 -185 -90 0 -90 0 0 90 0 90 -90 0 -90 0 0 -90 0 -90 -90 0 -90 0 0 90 0 90
-95 0 -96 0 3 -88 3 -87 93 -3 92 -3 0 -89 0 -90 90 0 90 0 0 90 0 90 90 0 90
0 0 -180 0 -180 -275 0 -275 0 0 -90 0 -90 -90 0 -90 0 0 270 0 270 -90 0 -90
0 0 185 0 185 180 0 180 0 0 90 0 90 -180 0 -180 0 0 90 0 90 90 0 90 0 0 90
0 90 -90 0 -90 0 0 -90 0 -90 -180 0 -180 0 0 90 0 90 90 0 90 0 0 90 0 90 90
0 90 0 0 95 0 95 90 0 90 0 0 -95 0 -95 90 0 90 0 0 -90 0 -90 95 0 95 0 0
-90 0 -90 90 0 90 0 0 90 0 90 -90 0 -90 0 0 90 0 90 -95 0 -96 0 3 93 3 92
93 3 93 3 -3 87 -3 87 -362 3 -363 2 0 90 0 90 -90 0 -90 0 0 90 0 90 90 0 90
0 0 90 0 90 90 0 90 0 0 -180 0 -180 90 0 90 0 0 545 0 545 -270 0 -270 0 0
-90 0 -90 -275 0 -275 0 0 -90 0 -90 273 -2 272 -3 3 -92 3 -93 89 0 90 0 0
-90 0 -90 -182 2 -183 3 -3 88 -3 87 -179 0 -180 0 0 -90 0 -90 -90 0 -90 0 0
90 0 90 -275 0 -275 0 0 95 0 95 95 0 95 0 0 180 0 180 180 0 180 0 -2 273 -3
272 -177 3 -177 2 -3 -92 -3 -93 -92 -3 -93 -3 0 -89 0 -90 -90 0 -90 0 0 90
0 90 -90 0 -90 0 0 -90 0 -90 90 0 90 0 0 -90 0 -90 -90 0 -90 0 0 -90 0 -90
90 0 90 0 0 90 0 90 90 0 90 0 0 -180 0 -180 -180 0 -180 0 0 -95 0 -95 180 0
179 0 3 -87 3 -88 183 -3 182 -2 0 -90 0 -90 -90 0 -90 0 0 -90 0 -90 -95 0
-95 0 0 -90 0 -90 -180 0 -180 0 0 -640 0 -640 180 0 180 0 0 95 0 95 95 0 95
0 0 -95 0 -95 178 2 177 3 3 273 2 272 90 0 90 0 0 -90 0 -90 180 0 180 0 2
-362 3 -363 93 -3 92 -3 0 -89 0 -89 -92 -3 -93 -3 -3 -177 -2 -177 92 -3 93
-3 3 -272 2 -273 90 0 90 0 0 365 0 365 90 0 90 0 0 -275 0 -275 365 0 365 0
0 -90 0 -90 90 0 90 0 0 90 0 90 -90 0 -90 0 0 90 0 90 90 0 90 0 0 95 0 95
90 0 90 0 0 -275 0 -275 90 0 90 0 0 275 0 275 -90 0 -90 0 0 90 0 90 -90 0
-90 0 0 90 0 90 180 0 180 0 0 -90 0 -90 183 -2 182 -3 3 -87 3 -87 -93 -3
-93 -3 0 -90 0 -90 273 -3 272 -2 0 -90 0 -90 -90 0 -90 0 0 -90 0 -90 365 0
365 0 0 90 0 90 -95 0 -95 0 0 90 0 89 93 3 92 3 3 93 3 92 89 0 90 0 0 90 0
90 90 0 90 0 0 -90 0 -90 90 0 90 0 0 -95 0 -95 90 0 90 0 0 -90 0 -90 -90 0
-90 0 0 -90 0 -90 180 0 180 0 0 90 0 90 275 0 275 0 0 275 0 275 -90 0 -90 0
0 180 0 180 -90 0 -90 0 0 90 0 90 -95 0 -95 0 0 185 0 185 95 0 95 0 0 90 0
90 180 0 180 0 0 90 0 90 -180 0 -180 0 0 90 0 90 90 0 90 0 0 90 0 90 90 0
90 0 0 455 0 455 -90 0 -90 0 0 -180 0 -180 -90 0 -90 0 0 -90 0 -90 -95 0
-95 0 0 180 0 180 95 0 95 0 0 180 0 179 88 3 87 3 3 93 3 92 89 0 90 0 0 270
0 270 -180 0 -180 0 -2 183 -3 182 -180 0 -180 0 -3 -92 -3 -93 -179 0 -180 0
0 -90 0 -90 -90 0 -90 0 0 90 0 90 -90 0 -90 0 0 820 0 820 -95 0 -95 0 0
-180 0 -180 -90 0 -90 0 0 180 0 180 -90 0 -90 0 0 -90z m-182 -362 l-3 -93
-87 -3 -88 -3 0 96 0 95 90 0 91 0 -3 -92z m362 -93 l0 -185 -90 0 -90 0 0
-90 0 -90 90 0 90 0 0 -90 0 -90 90 0 90 0 0 -90 0 -90 -90 0 -90 0 0 -90 0
-90 90 0 90 0 0 -95 0 -95 -270 0 -270 0 0 -90 0 -90 90 0 90 0 0 -90 0 -90
-90 0 -90 0 0 -90 0 -90 -90 0 -90 0 0 -90 0 -90 -95 0 -96 0 3 88 3 87 93 3
92 3 0 179 0 180 -365 0 -365 0 0 -180 0 -180 180 0 180 0 0 -90 0 -90 -90 0
-90 0 0 -95 0 -95 180 0 180 0 0 -90 0 -90 -90 0 -90 0 0 -90 0 -90 -90 0 -90
0 0 -90 0 -90 -90 0 -90 0 0 180 0 180 -90 0 -90 0 0 90 0 90 -90 0 -90 0 0
95 0 96 88 -3 87 -3 3 -92 3 -93 89 0 90 0 0 185 0 185 -90 0 -90 0 0 180 0
180 -90 0 -90 0 0 185 0 185 90 0 90 0 0 -185 0 -185 90 0 90 0 0 185 0 185
90 0 90 0 0 -95 0 -95 90 0 89 0 3 93 3 92 88 3 87 3 0 179 0 180 95 0 95 0 0
90 0 90 90 0 90 0 0 90 0 90 90 0 90 0 0 185 0 185 90 0 90 0 0 -185z m-2180
-455 l0 -90 -90 0 -90 0 0 90 0 90 90 0 90 0 0 -90z m548 -182 l3 -88 -96 0
-95 0 0 90 0 91 93 -3 92 -3 3 -87z m2902 -728 l0 -270 95 0 95 0 0 90 0 90
90 0 90 0 0 -90 0 -90 -90 0 -90 0 0 -90 0 -90 -95 0 -95 0 0 -275 0 -275 -90
0 -90 0 0 180 0 180 -90 0 -90 0 0 -90 0 -90 -90 0 -90 0 0 -90 0 -90 90 0 90
0 0 -90 0 -90 -90 0 -90 0 0 90 0 90 -90 0 -90 0 0 90 0 90 -90 0 -90 0 0 90
0 90 -95 0 -96 0 3 93 3 92 90 0 90 0 3 -93 3 -93 87 3 87 3 3 93 3 92 89 0
90 0 0 90 0 90 180 0 180 0 0 90 0 90 -90 0 -90 0 0 90 0 90 90 0 90 0 0 90 0
90 90 0 90 0 0 -270z m-720 0 l0 -90 -90 0 -90 0 0 90 0 90 90 0 90 0 0 -90z
m-370 -180 l0 -90 -90 0 -90 0 0 90 0 90 90 0 90 0 0 -90z m-2360 -180 l0 -90
-90 0 -90 0 0 90 0 90 90 0 90 0 0 -90z m-730 -550 l0 -90 -90 0 -90 0 0 90 0
90 90 0 90 0 0 -90z m3280 -180 l0 -90 90 0 90 0 0 -90 0 -90 -90 0 -90 0 0
-90 0 -90 -95 0 -95 0 0 90 0 90 -90 0 -90 0 0 90 0 90 90 0 90 0 0 90 0 90
95 0 95 0 0 -90z m-3820 -455 l0 -365 90 0 90 0 0 -90 0 -90 -90 0 -90 0 0
-180 0 -180 -90 0 -89 0 -3 88 -3 87 -92 3 -93 3 0 -91 0 -90 -90 0 -90 0 0
180 0 180 90 0 90 0 0 90 0 89 93 3 92 3 3 363 2 362 90 0 90 0 0 -365z m910
275 l0 -89 -92 -3 -93 -3 -3 -87 -3 -88 -89 0 -90 0 0 -95 0 -95 185 0 185 0
0 -90 0 -90 -95 0 -95 0 0 -90 0 -90 -180 0 -180 0 0 90 0 90 90 0 90 0 0 90
0 90 -90 0 -90 0 0 95 0 95 -90 0 -90 0 0 90 0 90 90 0 90 0 0 90 0 90 275 0
275 0 0 -90z m3630 -180 l0 -90 -90 0 -90 0 0 90 0 90 90 0 90 0 0 -90z m550
0 l0 -90 -90 0 -90 0 0 90 0 90 90 0 90 0 0 -90z m-550 -370 l0 -90 -90 0 -90
0 0 90 0 90 90 0 90 0 0 -90z m370 0 l0 -91 -92 3 -93 3 -3 88 -3 87 96 0 95
0 0 -90z m-370 -360 l0 -90 90 0 90 0 0 -90 0 -90 -180 0 -180 0 0 90 0 90
-90 0 -90 0 0 90 0 90 180 0 180 0 0 -90z m-3270 -180 l0 -90 -90 0 -90 0 0
-185 0 -185 90 0 90 0 0 -180 0 -180 -90 0 -90 0 0 180 0 180 -90 0 -90 0 0
275 0 275 180 0 180 0 0 -90z m1450 -185 l0 -95 95 0 96 0 -3 -87 -3 -88 -93
-3 -93 -3 3 -87 3 -87 93 -3 92 -3 0 -89 0 -90 -185 0 -185 0 0 90 0 90 -90 0
-90 0 0 90 0 90 180 0 180 0 0 90 0 89 -87 3 -88 3 -3 93 -3 92 91 0 90 0 0
-95z m910 -185 l0 -90 -90 0 -90 0 0 90 0 90 90 0 90 0 0 -90z m730 -180 l0
-270 -270 0 -270 0 0 270 0 270 270 0 270 0 0 -270z m360 -90 l0 -180 95 0 95
0 0 -90 0 -90 90 0 90 0 0 -90 0 -90 -90 0 -89 0 -3 -92 -3 -93 -182 -3 -183
-2 0 95 0 95 -90 0 -90 0 0 90 0 90 180 0 180 0 0 90 0 90 -90 0 -90 0 0 180
0 180 90 0 90 0 0 -180z m-1270 -180 l0 -180 90 0 90 0 0 -185 0 -185 -180 0
-180 0 0 95 0 95 -90 0 -90 0 0 90 0 90 90 0 90 0 0 90 0 90 -90 0 -90 0 0 90
0 90 180 0 180 0 0 -180z m-1270 -270 l0 -90 -90 0 -90 0 0 -95 0 -95 -182 2
-183 3 -3 183 -2 182 275 0 275 0 0 -90z"/>
<path d="M3820 5140 l0 -90 -90 0 -90 0 0 -90 0 -90 90 0 90 0 0 90 0 90 90 0
90 0 0 -90 0 -90 90 0 90 0 0 90 0 90 -90 0 -90 0 0 90 0 90 -90 0 -90 0 0
-90z"/>
<path d="M3640 4595 l0 -95 90 0 91 0 -3 93 -3 92 -87 3 -88 3 0 -96z"/>
<path d="M2910 3500 l0 -90 90 0 90 0 0 90 0 90 -90 0 -90 0 0 -90z"/>
<path d="M5270 3870 l0 -90 90 0 90 0 0 90 0 90 -90 0 -90 0 0 -90z"/>
<path d="M4910 3685 l0 -95 90 0 90 0 0 95 0 95 -90 0 -90 0 0 -95z"/>
<path d="M4360 2960 l0 -90 95 0 95 0 0 90 0 90 -95 0 -95 0 0 -90z"/>
<path d="M1090 2780 l0 -90 90 0 90 0 0 90 0 90 -90 0 -90 0 0 -90z"/>
<path d="M4730 1320 l0 -90 90 0 90 0 0 90 0 90 -90 0 -90 0 0 -90z"/>
<path d="M4730 5505 l0 -635 635 0 635 0 0 635 0 635 -635 0 -635 0 0 -635z
m1090 0 l0 -455 -455 0 -455 0 0 455 0 455 455 0 455 0 0 -455z"/>
<path d="M5090 5505 l0 -275 275 0 275 0 -2 273 -3 272 -272 3 -273 2 0 -275z"/>
<path d="M1097 4683 c-4 -3 -7 -46 -7 -95 l0 -88 90 0 90 0 0 -90 0 -90 -90 0
-90 0 0 -90 0 -90 180 0 180 0 0 275 0 275 -173 0 c-96 0 -177 -3 -180 -7z"/>
<path d="M1820 4410 l0 -90 90 0 90 0 0 90 0 90 -90 0 -90 0 0 -90z"/>
<path d="M730 3870 l0 -90 90 0 90 0 0 90 0 90 -90 0 -90 0 0 -90z"/>
<path d="M0 3230 l0 -180 90 0 90 0 0 180 0 180 -90 0 -90 0 0 -180z"/>
<path d="M2550 1870 l0 -90 90 0 90 0 0 90 0 90 -90 0 -90 0 0 -90z"/>
<path d="M1092 1688 l3 -93 88 -3 87 -3 0 96 0 95 -90 0 -91 0 3 -92z"/>
<path d="M5820 1685 l0 -95 90 0 90 0 0 95 0 95 -90 0 -90 0 0 -95z"/>
<path d="M0 775 l0 -635 635 0 635 0 0 635 0 635 -635 0 -635 0 0 -635z m1090
0 l0 -455 -455 0 -455 0 0 455 0 455 455 0 455 0 0 -455z"/>
<path d="M362 778 l3 -273 273 -3 272 -2 0 275 0 275 -275 0 -275 0 2 -272z"/>
<path d="M3450 230 l0 -90 95 0 95 0 0 90 0 90 -95 0 -95 0 0 -90z"/>
</g>
</svg>
